# xmcd
#
# Track frame offsets:
#  150
#  17000
#  36942
#  63927
#  80477
#  109762
#  127900
#  152827
#  174007
#  191447
#  213092
#  231187
#  255032
#
# Disc length: 3627 seconds
#
# Revision: 1
# Processed by: cddbd v1.5.1PL0 Copyright (c) Steve Scherf et al.
# Submitted via: Collectorz.com_Music_Collector 6.9
#
DISCID=940e290d
DTITLE=Blue Willow - Blue Willow
DYEAR=1999
DGENRE=Blues
TTITLE0=Gotta Let It All Go
TTITLE1=Fragile Fire
TTITLE2=Sometimes I Wish
TTITLE3=Mr. G.Q.
TTITLE4=Cry
TTITLE5=You Do What You Want To
TTITLE6=So Close
TTITLE7=Almost Forty
TTITLE8=Speed Demon
TTITLE9=Noisy Neighbour Blues
TTITLE10=I Want Love
TTITLE11=Too Close To Home
TTITLE12=That's Boogie Woogie
EXTD=
EXTT0=
EXTT1=
EXTT2=
EXTT3=
EXTT4=
EXTT5=
EXTT6=
EXTT7=
EXTT8=
EXTT9=
EXTT10=
EXTT11=
EXTT12=
PLAYORDER=
